<?xml version="1.0" encoding="UTF-8" standalone="no"?>
<!-- Generator: Adobe Illustrator 18.1.1, SVG Export Plug-In . SVG Version: 6.00 Build 0)  -->

<svg
   xmlns:dc="http://purl.org/dc/elements/1.1/"
   xmlns:cc="http://creativecommons.org/ns#"
   xmlns:rdf="http://www.w3.org/1999/02/22-rdf-syntax-ns#"
   xmlns:svg="http://www.w3.org/2000/svg"
   xmlns="http://www.w3.org/2000/svg"
   xmlns:xlink="http://www.w3.org/1999/xlink"
   xmlns:sodipodi="http://sodipodi.sourceforge.net/DTD/sodipodi-0.dtd"
   xmlns:inkscape="http://www.inkscape.org/namespaces/inkscape"
   version="1.1"
   id="Major"
   x="0px"
   y="0px"
   viewBox="0 0 64 64"
   enable-background="new 0 0 64 64"
   xml:space="preserve"
   sodipodi:docname="High.svg"
   inkscape:version="0.92.3 (2405546, 2018-03-11)"
   inkscape:export-filename="C:\Users\TheZj\source\repos\Affectionate-Dove\JIRA-Priority-Icons\High.png"
   inkscape:export-xdpi="384"
   inkscape:export-ydpi="384"><metadata
   id="metadata15"><rdf:RDF><cc:Work
       rdf:about=""><dc:format>image/svg+xml</dc:format><dc:type
         rdf:resource="http://purl.org/dc/dcmitype/StillImage" /><dc:title /></cc:Work></rdf:RDF></metadata><defs
   id="defs13"><linearGradient
     inkscape:collect="always"
     id="linearGradient3024"><stop
       style="stop-color:#ea8000;stop-opacity:1"
       offset="0"
       id="stop3020" /><stop
       style="stop-color:#d1d800;stop-opacity:1"
       offset="1"
       id="stop3022" /></linearGradient><linearGradient
     inkscape:collect="always"
     xlink:href="#linearGradient3024"
     id="linearGradient3026"
     x1="31.609962"
     y1="7.59694"
     x2="32.053982"
     y2="34.577579"
     gradientUnits="userSpaceOnUse" /></defs><sodipodi:namedview
   pagecolor="#ffffff"
   bordercolor="#666666"
   borderopacity="1"
   objecttolerance="10"
   gridtolerance="10"
   guidetolerance="10"
   inkscape:pageopacity="0"
   inkscape:pageshadow="2"
   inkscape:window-width="1360"
   inkscape:window-height="705"
   id="namedview11"
   showgrid="false"
   inkscape:zoom="7.375"
   inkscape:cx="57.915938"
   inkscape:cy="36.107172"
   inkscape:window-x="-8"
   inkscape:window-y="-8"
   inkscape:window-maximized="1"
   inkscape:current-layer="Major" />




<g
   id="g23"
   transform="matrix(1.127624,0,0,1.1229432,-4.388216,10.237782)"
   style="fill:url(#linearGradient3026);fill-opacity:1"><path
     id="path2"
     d="m 49.593,29.593 v 0 c 1.556,-1.556 1.556,-4.101 0,-5.657 L 34.824,9.167 c -1.556,-1.556 -4.101,-1.556 -5.657,0 v 0 c -1.556,1.556 -1.556,4.101 0,5.657 l 14.769,14.769 c 1.555,1.555 4.101,1.555 5.657,0 z"
     inkscape:connector-curvature="0"
     style="fill:#ea8000;fill-opacity:1" /><path
     id="path4"
     d="m 14.241,29.593 v 0 c -1.556,-1.556 -1.556,-4.101 0,-5.657 L 29.01,9.167 c 1.556,-1.556 4.101,-1.556 5.657,0 v 0 c 1.556,1.556 1.556,4.101 0,5.657 l -14.77,14.769 c -1.555,1.555 -4.101,1.555 -5.656,0 z"
     inkscape:connector-curvature="0"
     style="fill:#ea8000;fill-opacity:1" /></g></svg>